<svg xmlns="http://www.w3.org/2000/svg" viewBox="0 -40 1532 1173" role="img" aria-labelledby="title desc">
  <title id="title">Model compression</title>
  <desc id="desc">A sparse neural network beside a downward cost arrow.</desc>
  <defs>
    <marker id="arrow" markerWidth="12" markerHeight="10" refX="10" refY="5" orient="auto">
      <path d="M0 0 L12 5 L0 10 Z" fill="#555"/>
    </marker>
  </defs>

  <rect width="1532" height="1010" fill="#fff"/>

  <g fill="none" stroke-linecap="square">
    <path d="M194 345 L560 170 L924 345" stroke="#4d4d4d" stroke-width="18"/>
    <path d="M194 705 L560 525 L924 345" stroke="#4d4d4d" stroke-width="18"/>
    <path d="M194 345 L560 525 L924 705" stroke="#4d4d4d" stroke-width="18"/>
    <path d="M194 705 L560 890 L924 705" stroke="#4d4d4d" stroke-width="18"/>
    <path d="M560 170 L924 705" stroke="#4d4d4d" stroke-width="18"/>

    <path d="M194 345 L560 890 M560 170 L194 705 M924 345 L560 890 M560 525 L924 705"
          stroke="#b8b8b8" stroke-width="10" stroke-dasharray="76 30"/>
  </g>

  <g>
    <circle cx="194" cy="345" r="80" fill="#fff" stroke="#4d4d4d" stroke-width="18"/>
    <circle cx="194" cy="345" r="56" fill="#d0d0d0"/>

    <circle cx="194" cy="705" r="80" fill="#fff" stroke="#4d4d4d" stroke-width="18"/>
    <circle cx="194" cy="705" r="56" fill="#d0d0d0"/>

    <circle cx="560" cy="170" r="80" fill="#fff" stroke="#4d4d4d" stroke-width="18"/>
    <circle cx="560" cy="170" r="56" fill="#4a83e6"/>

    <circle cx="560" cy="525" r="80" fill="#fff" stroke="#4d4d4d" stroke-width="18"/>
    <circle cx="560" cy="525" r="56" fill="#4a83e6"/>

    <circle cx="560" cy="890" r="80" fill="#fff" stroke="#4d4d4d" stroke-width="18"/>
    <circle cx="560" cy="890" r="56" fill="#4a83e6"/>

    <circle cx="924" cy="345" r="80" fill="#fff" stroke="#4d4d4d" stroke-width="18"/>
    <circle cx="924" cy="345" r="56" fill="#d0d0d0"/>

    <circle cx="924" cy="705" r="80" fill="#fff" stroke="#4d4d4d" stroke-width="18"/>
    <circle cx="924" cy="705" r="56" fill="#d0d0d0"/>
  </g>

  <g fill="#555">
    <path d="M1110 245 H1388 V750 H1450 L1250 900 L1050 750 H1110 Z"/>
    <circle cx="1250" cy="390" r="82" fill="#fff"/>
    <path d="M1250 343 V390 L1282 416" fill="none" stroke="#555" stroke-width="13" stroke-linecap="round" stroke-linejoin="round"/>
    <text x="1250" y="704" fill="#fff" font-family="Arial, Helvetica, sans-serif" font-size="235" font-weight="700" text-anchor="middle">$</text>
  </g>
</svg>
